<svg width="9940" height="6197" viewBox="0 0 9940 6197" fill="none" xmlns="http://www.w3.org/2000/svg">
<mask id="mask0" mask-type="alpha" maskUnits="userSpaceOnUse" x="0" y="0" width="7878" height="5204">
<path d="M7865.39 3345.76L0 5203.15V1869.69L7877.63 0L7865.39 3345.76Z" fill="#C4C4C4"/>
</mask>
<g mask="url(#mask0)">
<path fill-rule="evenodd" clip-rule="evenodd" d="M1128.04 4489.31C1445.23 4414.8 1641.97 4097.25 1567.45 3780.06C1492.94 3462.87 1175.4 3266.13 858.201 3340.65C541.007 3415.16 344.276 3732.7 418.79 4049.9C493.304 4367.09 810.846 4563.82 1128.04 4489.31ZM1217.56 4870.37C1745.21 4746.42 2072.47 4218.19 1948.51 3690.54C1824.56 3162.89 1296.33 2835.63 768.684 2959.59C241.035 3083.54 -86.225 3611.77 37.7282 4139.42C161.681 4667.07 689.909 4994.33 1217.56 4870.37Z" fill="#5B5B5B"/>
<path d="M7402.94 3469.49L7802.58 3464.32L7772.78 5661.99L7373.14 5667.16L7402.94 3469.49Z" fill="#A6D4E8"/>
<path d="M5169.51 340.158L5570.36 340.142L5570.63 7150.02L5169.78 7150.03L5169.51 340.158Z" fill="#EDA767"/>
<path d="M-1335.06 1362.93L8236.66 -885.62L8415.7 -123.498L-1156.03 2125.06L-1335.06 1362.93Z" fill="white"/>
<path d="M671.041 7202.65L10242.8 4954.1L10557.7 6294.66L985.962 8543.21L671.041 7202.65Z" fill="white"/>
<path d="M1.71875 1503.82L402.566 1503.8L402.711 5189.53L1.86348 5189.54L1.71875 1503.82Z" fill="#5B5B5B"/>
<path fill-rule="evenodd" clip-rule="evenodd" d="M6987.96 3119.15C6670.79 3193.65 6353.28 2996.94 6278.77 2679.77C6204.26 2362.61 6400.97 2045.09 6718.14 1970.58C7035.31 1896.08 7352.82 2092.79 7427.33 2409.96C7501.84 2727.12 7305.12 3044.64 6987.96 3119.15ZM7077.47 3500.21C6549.85 3624.15 6021.65 3296.91 5897.71 2769.29C5773.76 2241.67 6101 1713.47 6628.62 1589.52C7156.24 1465.58 7684.44 1792.82 7808.39 2320.44C7932.34 2848.06 7605.09 3376.26 7077.47 3500.21Z" fill="#5B5B5B"/>
<path d="M7453.3 3546.18H7854.15V-612.817H7453.3V3546.18Z" fill="#5B5B5B"/>
<path d="M7402.95 3469.49L7802.59 3464.32L7772.79 5661.99L7373.15 5667.16L7402.95 3469.49Z" fill="#A6D4E8"/>
<path fill-rule="evenodd" clip-rule="evenodd" d="M7386.47 4796.27C7395.52 4694.95 7399.16 4596.14 7398.17 4550.08L7784.61 4540.99C7786.01 4606.26 7781.25 4720.36 7771.46 4829.89C7762.44 4930.85 7746.6 5062.3 7715.79 5143.04C7667.45 5269.72 7594.91 5385.31 7501.99 5482.27C7409.04 5579.27 7297.64 5655.58 7174.34 5705.74C7051 5755.9 6918.88 5778.61 6786.34 5772.13C6653.81 5765.65 6524.45 5730.17 6406.35 5668.45C6288.29 5606.75 6184.29 5520.32 6100.31 5415.22C6016.36 5310.15 5954.05 5188.5 5916.65 5058.02C5880.07 4930.39 5880.37 4803.87 5880.63 4700.31C5880.65 4691.92 5880.67 4683.69 5880.67 4675.61L6267.19 4674.83C6267.19 4677.49 6267.19 4680.13 6267.19 4682.74C6267.18 4802.35 6267.17 4877.37 6288.23 4950.81C6311.88 5033.35 6350.97 5109.09 6402.46 5173.53C6453.93 5237.94 6516.54 5289.52 6585.91 5325.77C6655.23 5362 6730.12 5382.32 6805.99 5386.03C6881.84 5389.74 6957.81 5376.8 7029.34 5347.7C7100.92 5318.59 7167.03 5273.71 7223.19 5215.1C7279.38 5156.46 7324.37 5085.37 7354.7 5005.86C7363.23 4983.51 7376.65 4906.17 7386.47 4796.27Z" fill="#A6D4E8"/>
<path d="M5890.54 3929.79L6277.04 3924.56L6267.05 4695.4L5880.54 4700.62L5890.54 3929.79Z" fill="#A6D4E8"/>
<mask id="mask1" mask-type="alpha" maskUnits="userSpaceOnUse" x="2123" y="2001" width="2704" height="2667">
<path d="M4826.88 2001.21L2123.54 2637.29V4667.86L4826.88 4068.48V2001.21Z" fill="#C4C4C4"/>
</mask>
<g mask="url(#mask1)">
<path fill-rule="evenodd" clip-rule="evenodd" d="M2502.75 3363.95C2502.75 3479.94 2502.74 3549.44 2523.12 3617.4C2546.18 3694.31 2584.41 3765.34 2635.23 3826.14C2686.04 3886.93 2748.32 3936.17 2818.06 3971C2887.78 4005.84 2963.57 4025.59 3040.74 4029.2C3117.9 4032.8 3195.02 4020.2 3267.35 3992.07C3339.7 3963.94 3405.86 3920.83 3461.64 3865.18C3517.43 3809.53 3561.64 3742.52 3591.3 3668.21C3620.96 3593.88 3635.39 3513.96 3633.58 3433.44L4020.02 3424.75C4023 3557.09 3999.31 3688.71 3950.3 3811.49C3901.29 3934.28 3827.96 4045.74 3734.64 4138.84C3641.31 4231.95 3529.97 4304.69 3407.44 4352.33C3284.9 4399.98 3153.92 4421.45 3022.7 4415.32C2891.47 4409.19 2763.01 4375.6 2645.3 4316.79C2527.61 4257.99 2423.28 4175.29 2338.65 4074.04C2254.02 3972.8 2190.85 3855.13 2152.86 3728.41C2115.57 3604.04 2115.9 3480.74 2116.17 3381.99C2116.19 3373.89 2116.21 3365.96 2116.21 3358.2L2502.75 3358.2C2502.75 3360.13 2502.75 3362.05 2502.75 3363.95Z" fill="#F47F7F"/>
<path d="M2129.13 2420.67L2515.64 2415.67L2502.6 3377.48L2116.09 3382.48L2129.13 2420.67Z" fill="#F47F7F"/>
<path d="M4381.04 1964.94L4781.88 1964.92L4781.97 4164.21L4381.12 4164.22L4381.04 1964.94Z" fill="#F47F7F"/>
<path d="M3655.85 2126.31H4055.52L3994.2 4440.34H3594.53L3655.85 2126.31Z" fill="#F47F7F"/>
</g>
<path d="M5169.51 340.158L5570.36 340.142L5570.63 7150.02L5169.78 7150.03L5169.51 340.158Z" fill="#FBAB62"/>
<path d="M-1335.06 1362.93L8236.66 -885.62L8415.7 -123.497L-1156.03 2125.06L-1335.06 1362.93Z" fill="white"/>
<mask id="mask2" mask-type="alpha" maskUnits="userSpaceOnUse" x="4374" y="1408" width="441" height="484">
<path d="M4814.65 1793.26L4374.29 1891.12V1511.92L4814.65 1408.55V1793.26Z" fill="black"/>
</mask>
<g mask="url(#mask2)">
<mask id="mask3" mask-type="alpha" maskUnits="userSpaceOnUse" x="4381" y="1408" width="401" height="490">
<path d="M4781.38 1798.62L4381.63 1897.85V1513.36L4781.38 1408.55V1798.62Z" fill="black"/>
</mask>
<g mask="url(#mask3)">
<path d="M4380.84 1398.05L4781.69 1398.03L4781.71 1905.31L4380.86 1905.33L4380.84 1398.05Z" fill="#F47F7F"/>
</g>
</g>
<path d="M671.041 7251.58L10242.8 5003.03L10557.7 6343.6L985.962 8592.15L671.041 7251.58Z" fill="white"/>
<path d="M1.92969 2189.59H405.597V3241.57H1.92969V2189.59Z" fill="#5B5B5B"/>
</g>
<mask id="mask4" mask-type="alpha" maskUnits="userSpaceOnUse" x="5108" y="3102" width="4832" height="3095">
<path d="M9878.84 3102.12L5891.1 4044.01L5573.05 3872.76L5169.39 3970.62L5108.23 6196.9L9940 5059.3L9878.84 3102.12Z" fill="#C4C4C4"/>
</mask>
<g mask="url(#mask4)">
<path d="M9517.02 2892.47L9864.17 3092.89L8256.36 5877.69L7909.22 5677.27L9517.02 2892.47Z" fill="#98DAF6"/>
<path d="M8000.34 3455.8L8302.56 3192.46L9956.39 5090.5L9654.18 5353.84L8000.34 3455.8Z" fill="#98DAF6"/>
<path d="M7402.94 3469.49L7802.58 3464.32L7772.78 5661.99L7373.14 5667.16L7402.94 3469.49Z" fill="#98DAF6"/>
<path fill-rule="evenodd" clip-rule="evenodd" d="M7386.47 4796.27C7395.52 4694.95 7399.16 4596.14 7398.17 4550.08L7784.6 4540.99C7786.01 4606.26 7781.24 4720.36 7771.46 4829.89C7762.44 4930.85 7746.59 5062.3 7715.79 5143.04C7667.45 5269.72 7594.9 5385.31 7501.99 5482.28C7409.04 5579.27 7297.64 5655.59 7174.34 5705.74C7051 5755.9 6918.87 5778.61 6786.34 5772.13C6653.81 5765.65 6524.45 5730.18 6406.35 5668.45C6288.29 5606.75 6184.29 5520.32 6100.31 5415.22C6016.36 5310.15 5954.04 5188.5 5916.65 5058.02C5880.07 4930.4 5880.37 4803.87 5880.62 4700.31C5880.64 4691.92 5880.66 4683.69 5880.66 4675.61L6267.19 4674.83C6267.19 4677.49 6267.19 4680.13 6267.19 4682.74C6267.18 4802.35 6267.17 4877.37 6288.22 4950.81C6311.88 5033.35 6350.96 5109.09 6402.46 5173.53C6453.92 5237.94 6516.54 5289.52 6585.9 5325.77C6655.23 5362 6730.12 5382.32 6805.98 5386.03C6881.84 5389.74 6957.8 5376.8 7029.34 5347.7C7100.92 5318.59 7167.02 5273.71 7223.18 5215.1C7279.38 5156.46 7324.36 5085.37 7354.7 5005.86C7363.23 4983.51 7376.65 4906.17 7386.47 4796.27Z" fill="#98DAF6"/>
<path d="M5890.53 3929.79L6277.04 3924.56L6267.05 4695.4L5880.54 4700.62L5890.53 3929.79Z" fill="#98DAF6"/>
<path d="M5169.51 340.159L5570.36 340.143L5570.63 7150.02L5169.78 7150.03L5169.51 340.159Z" fill="#FBAB62"/>
</g>
</svg>
