<svg width="963" height="740" viewBox="0 0 963 740" fill="none" xmlns="http://www.w3.org/2000/svg">
<mask id="mask0" mask-type="alpha" maskUnits="userSpaceOnUse" x="0" y="0" width="892" height="589">
<path d="M666.521 444.521L0.454346 588.836V211.733L891.624 0.221558L666.521 444.521Z" fill="#C4C4C4"/>
</mask>
<g mask="url(#mask0)">
<path d="M914.344 365.697L953.615 388.371L771.729 703.406L732.458 680.733L914.344 365.697Z" fill="#A6D4E8"/>
<path d="M742.768 429.425L776.957 399.635L957.282 606.587L923.093 636.377L742.768 429.425Z" fill="#A6D4E8"/>
<path d="M675.185 430.974L720.395 430.389L717.024 679.004L671.814 679.589L675.185 430.974Z" fill="#A6D4E8"/>
<path d="M422.525 76.9633L467.871 76.9615L467.901 847.34L422.555 847.341L422.525 76.9633Z" fill="#FBAB62"/>
<path d="M-313.316 192.666L769.501 -61.705L789.754 24.5115L-293.063 278.883L-313.316 192.666Z" fill="white"/>
<path d="M914.344 365.698L953.616 388.371L771.73 703.406L732.459 680.733L914.344 365.698Z" fill="#A6D4E8"/>
<path d="M742.768 429.425L776.956 399.635L964.049 614.354L929.86 644.144L742.768 429.425Z" fill="#A6D4E8"/>
<path d="M675.186 430.974L720.396 430.389L717.024 679.004L671.815 679.589L675.186 430.974Z" fill="#A6D4E8"/>
<path fill-rule="evenodd" clip-rule="evenodd" d="M673.321 581.068C674.345 569.607 674.757 558.429 674.645 553.218L718.361 552.189C718.52 559.573 717.981 572.481 716.874 584.872C715.854 596.293 714.061 611.164 710.576 620.297C705.108 634.628 696.901 647.705 686.389 658.674C675.874 669.647 663.272 678.28 649.324 683.953C635.371 689.629 620.424 692.197 605.43 691.464C590.438 690.731 575.804 686.718 562.443 679.735C549.088 672.756 537.323 662.978 527.823 651.088C518.325 639.202 511.276 625.44 507.045 610.68C502.907 596.242 502.942 581.928 502.97 570.213C502.972 569.264 502.975 568.332 502.975 567.419L546.701 567.33C546.701 567.631 546.701 567.929 546.701 568.225C546.7 581.756 546.699 590.242 549.081 598.551C551.757 607.888 556.178 616.457 562.003 623.746C567.826 631.033 574.909 636.868 582.756 640.969C590.599 645.068 599.071 647.367 607.653 647.786C616.234 648.206 624.828 646.742 632.921 643.45C641.018 640.156 648.496 635.079 654.849 628.449C661.206 621.816 666.296 613.773 669.727 604.779C670.692 602.25 672.211 593.501 673.321 581.068Z" fill="#A6D4E8"/>
<path d="M504.091 483.047L547.816 482.455L546.685 569.657L502.961 570.248L504.091 483.047Z" fill="#A6D4E8"/>
<mask id="mask1" mask-type="alpha" maskUnits="userSpaceOnUse" x="77" y="264" width="307" height="303">
<path d="M383.764 264.873L77.9434 336.831V566.542L383.764 498.736V264.873Z" fill="#C4C4C4"/>
</mask>
<g mask="url(#mask1)">
<path fill-rule="evenodd" clip-rule="evenodd" d="M120.842 419.035C120.842 432.156 120.842 440.018 123.147 447.706C125.755 456.407 130.08 464.442 135.829 471.321C141.578 478.198 148.623 483.768 156.512 487.709C164.399 491.649 172.973 493.884 181.703 494.292C190.432 494.7 199.156 493.274 207.339 490.092C215.523 486.91 223.009 482.032 229.319 475.738C235.63 469.442 240.63 461.862 243.986 453.454C247.342 445.046 248.974 436.005 248.769 426.896L292.486 425.913C292.823 440.884 290.143 455.774 284.599 469.664C279.055 483.555 270.759 496.164 260.202 506.695C249.643 517.228 237.048 525.457 223.187 530.847C209.324 536.238 194.507 538.666 179.662 537.973C164.817 537.279 150.284 533.479 136.969 526.827C123.654 520.175 111.852 510.819 102.278 499.365C92.7046 487.912 85.5585 474.6 81.2604 460.264C77.0424 446.196 77.0796 432.247 77.1094 421.076C77.1119 420.159 77.1143 419.262 77.1143 418.385L120.842 418.384C120.842 418.603 120.842 418.82 120.842 419.035Z" fill="#F47F7F"/>
<path d="M78.5762 312.324L122.301 311.759L120.825 420.566L77.1007 421.131L78.5762 312.324Z" fill="#F47F7F"/>
<path d="M333.326 260.769L378.673 260.767L378.683 509.565L333.336 509.567L333.326 260.769Z" fill="#F47F7F"/>
<path d="M251.289 279.024H296.502L289.565 540.803H244.352L251.289 279.024Z" fill="#F47F7F"/>
</g>
<path d="M-313.316 192.667L769.501 -61.7047L789.754 24.5117L-293.063 278.883L-313.316 192.667Z" fill="white"/>
<mask id="mask2" mask-type="alpha" maskUnits="userSpaceOnUse" x="332" y="197" width="51" height="56">
<path d="M382.38 241.348L332.563 252.419V209.521L382.38 197.827V241.348Z" fill="black"/>
</mask>
<g mask="url(#mask2)">
<mask id="mask3" mask-type="alpha" maskUnits="userSpaceOnUse" x="333" y="197" width="46" height="57">
<path d="M378.617 241.955L333.394 253.179V209.684L378.617 197.827V241.955Z" fill="black"/>
</mask>
<g mask="url(#mask3)">
<path d="M333.306 196.639L378.652 196.637L378.654 254.024L333.308 254.026L333.306 196.639Z" fill="#F47F7F"/>
</g>
</g>
</g>
<mask id="mask4" mask-type="alpha" maskUnits="userSpaceOnUse" x="415" y="389" width="548" height="351">
<path d="M955.275 389.415L504.155 495.968L468.176 476.595L422.511 487.665L415.592 739.517L962.194 610.824L955.275 389.415Z" fill="#C4C4C4"/>
</mask>
<g mask="url(#mask4)">
<path d="M914.344 365.697L953.615 388.371L771.729 703.406L732.458 680.733L914.344 365.697Z" fill="#98DAF6"/>
<path d="M742.767 429.425L776.956 399.635L964.049 614.354L929.86 644.144L742.767 429.425Z" fill="#98DAF6"/>
<path d="M675.185 430.974L720.394 430.389L717.023 679.004L671.813 679.589L675.185 430.974Z" fill="#98DAF6"/>
<path fill-rule="evenodd" clip-rule="evenodd" d="M673.321 581.068C674.345 569.606 674.757 558.428 674.645 553.218L718.361 552.189C718.52 559.573 717.981 572.481 716.874 584.872C715.854 596.293 714.061 611.163 710.576 620.297C705.108 634.628 696.901 647.705 686.389 658.674C675.874 669.647 663.272 678.28 649.324 683.953C635.371 689.628 620.424 692.197 605.43 691.464C590.438 690.731 575.804 686.718 562.443 679.735C549.088 672.756 537.323 662.978 527.823 651.088C518.325 639.202 511.276 625.44 507.045 610.679C502.907 596.241 502.942 581.928 502.97 570.213C502.972 569.264 502.975 568.332 502.975 567.419L546.701 567.33C546.701 567.631 546.701 567.929 546.701 568.225C546.7 581.756 546.699 590.242 549.081 598.551C551.757 607.888 556.178 616.456 562.003 623.746C567.826 631.033 574.909 636.868 582.756 640.969C590.599 645.068 599.071 647.367 607.653 647.786C616.234 648.206 624.828 646.742 632.921 643.45C641.018 640.156 648.496 635.079 654.849 628.449C661.206 621.816 666.296 613.773 669.727 604.779C670.692 602.25 672.211 593.5 673.321 581.068Z" fill="#98DAF6"/>
<path d="M504.092 483.046L547.816 482.455L546.686 569.657L502.961 570.248L504.092 483.046Z" fill="#98DAF6"/>
<path d="M422.525 76.9633L467.871 76.9615L467.902 847.34L422.555 847.342L422.525 76.9633Z" fill="#FBAB62"/>
</g>
</svg>
